<?xml version="1.0"?>
<!DOCTYPE  svg PUBLIC "-//W3C//DTD SVG 1.1//EN" "http://www.w3.org/Graphics/SVG/1.1/DTD/svg11.dtd">
<svg xmlns="http://www.w3.org/2000/svg" xmlns:xlink="http://www.w3.org/1999/xlink" version="1.1" >
<text y="15">Les cases incluent leurs bords bas et gauche</text>
<text y="40">		radix4, [-3,3]</text>
	<line x1="50" y1="425" x2="1074" y2="800" style="stroke:rgb(0,200,200);stroke-width:2"/>
	<line x1="50" y1="425" x2="1074" y2="612.5" style="stroke:rgb(0,200,200);stroke-width:2"/>
	<line x1="1084" y1="800" x2="1084" y2="612.5" style="stroke:rgb(0,0,200);stroke-width:2"/>
	<line x1="50" y1="425" x2="1074" y2="706.25" style="stroke:rgb(0,200,200);stroke-width:2"/>
	<line x1="50" y1="425" x2="1074" y2="518.75" style="stroke:rgb(0,200,200);stroke-width:2"/>
	<line x1="1094" y1="706.25" x2="1094" y2="518.75" style="stroke:rgb(0,0,200);stroke-width:2"/>
	<line x1="50" y1="425" x2="1074" y2="612.5" style="stroke:rgb(0,200,200);stroke-width:2"/>
	<line x1="50" y1="425" x2="1074" y2="425" style="stroke:rgb(0,200,200);stroke-width:2"/>
	<line x1="1104" y1="612.5" x2="1104" y2="425" style="stroke:rgb(0,0,200);stroke-width:2"/>
	<line x1="50" y1="425" x2="1074" y2="518.75" style="stroke:rgb(0,200,200);stroke-width:2"/>
	<line x1="50" y1="425" x2="1074" y2="331.25" style="stroke:rgb(0,200,200);stroke-width:2"/>
	<line x1="1114" y1="518.75" x2="1114" y2="331.25" style="stroke:rgb(0,0,200);stroke-width:2"/>
	<line x1="50" y1="425" x2="1074" y2="425" style="stroke:rgb(0,200,200);stroke-width:2"/>
	<line x1="50" y1="425" x2="1074" y2="237.5" style="stroke:rgb(0,200,200);stroke-width:2"/>
	<line x1="1124" y1="425" x2="1124" y2="237.5" style="stroke:rgb(0,0,200);stroke-width:2"/>
	<line x1="50" y1="425" x2="1074" y2="331.25" style="stroke:rgb(0,200,200);stroke-width:2"/>
	<line x1="50" y1="425" x2="1074" y2="143.75" style="stroke:rgb(0,200,200);stroke-width:2"/>
	<line x1="1134" y1="331.25" x2="1134" y2="143.75" style="stroke:rgb(0,0,200);stroke-width:2"/>
	<line x1="50" y1="425" x2="1074" y2="237.5" style="stroke:rgb(0,200,200);stroke-width:2"/>
	<line x1="50" y1="425" x2="1074" y2="50" style="stroke:rgb(0,200,200);stroke-width:2"/>
	<line x1="1144" y1="237.5" x2="1144" y2="50" style="stroke:rgb(0,0,200);stroke-width:2"/>
	<line x1="562" y1="50" x2="562" y2="800" style="stroke:rgb(100,100,100);stroke-width:2"/>
	<line x1="818" y1="50" x2="818" y2="800" style="stroke:rgb(100,100,100);stroke-width:2"/>
	<line x1="1074" y1="50" x2="1074" y2="800" style="stroke:rgb(100,100,100);stroke-width:2"/>
	<line x1="562" y1="50" x2="1074" y2="50" style="stroke:rgb(100,100,100);stroke-width:1"/>
	<line x1="562" y1="97" x2="1074" y2="97" style="stroke:rgb(100,100,100);stroke-width:1"/>
	<line x1="562" y1="144" x2="1074" y2="144" style="stroke:rgb(100,100,100);stroke-width:1"/>
	<line x1="562" y1="191" x2="1074" y2="191" style="stroke:rgb(100,100,100);stroke-width:1"/>
	<line x1="562" y1="238" x2="1074" y2="238" style="stroke:rgb(100,100,100);stroke-width:1"/>
	<line x1="562" y1="285" x2="1074" y2="285" style="stroke:rgb(100,100,100);stroke-width:1"/>
	<line x1="562" y1="332" x2="1074" y2="332" style="stroke:rgb(100,100,100);stroke-width:1"/>
	<line x1="562" y1="379" x2="1074" y2="379" style="stroke:rgb(100,100,100);stroke-width:1"/>
	<line x1="562" y1="425" x2="1074" y2="425" style="stroke:rgb(100,100,100);stroke-width:1"/>
	<line x1="562" y1="471" x2="1074" y2="471" style="stroke:rgb(100,100,100);stroke-width:1"/>
	<line x1="562" y1="518" x2="1074" y2="518" style="stroke:rgb(100,100,100);stroke-width:1"/>
	<line x1="562" y1="565" x2="1074" y2="565" style="stroke:rgb(100,100,100);stroke-width:1"/>
	<line x1="562" y1="612" x2="1074" y2="612" style="stroke:rgb(100,100,100);stroke-width:1"/>
	<line x1="562" y1="659" x2="1074" y2="659" style="stroke:rgb(100,100,100);stroke-width:1"/>
	<line x1="562" y1="706" x2="1074" y2="706" style="stroke:rgb(100,100,100);stroke-width:1"/>
	<line x1="562" y1="753" x2="1074" y2="753" style="stroke:rgb(100,100,100);stroke-width:1"/>
	<line x1="562" y1="800" x2="1074" y2="800" style="stroke:rgb(100,100,100);stroke-width:1"/>
	<line x1="50" y1="50" x2="50" y2="800" style="stroke:rgb(0,0,0);stroke-width:2"/>
	<line x1="50" y1="425" x2="1074" y2="425" style="stroke:rgb(0,0,0);stroke-width:2"/>
	<line x1="1074" y1="800" x2="1074" y2="50" style="stroke:rgb(255,0,0);stroke-width:2"/>
	<line x1="562" y1="612" x2="562" y2="238" style="stroke:rgb(255,0,0);stroke-width:2"/>
</svg>
