<?xml version="1.0"?>
<!DOCTYPE  svg PUBLIC "-//W3C//DTD SVG 1.1//EN" "http://www.w3.org/Graphics/SVG/1.1/DTD/svg11.dtd">
<svg xmlns="http://www.w3.org/2000/svg" xmlns:xlink="http://www.w3.org/1999/xlink" version="1.1" >
<text y="15">Les cases incluent leurs bords haut et gauche</text>
<text y="40">		radix8, [-7,7]</text>
	<line x1="50" y1="425" x2="1074" y2="800" style="stroke:rgb(0,200,200);stroke-width:2"/>
	<line x1="50" y1="425" x2="1074" y2="706.25" style="stroke:rgb(0,200,200);stroke-width:2"/>
	<line x1="1084" y1="800" x2="1084" y2="706.25" style="stroke:rgb(0,0,200);stroke-width:2"/>
	<line x1="50" y1="425" x2="1074" y2="753.125" style="stroke:rgb(0,200,200);stroke-width:2"/>
	<line x1="50" y1="425" x2="1074" y2="659.375" style="stroke:rgb(0,200,200);stroke-width:2"/>
	<line x1="1094" y1="753.125" x2="1094" y2="659.375" style="stroke:rgb(0,0,200);stroke-width:2"/>
	<line x1="50" y1="425" x2="1074" y2="706.25" style="stroke:rgb(0,200,200);stroke-width:2"/>
	<line x1="50" y1="425" x2="1074" y2="612.5" style="stroke:rgb(0,200,200);stroke-width:2"/>
	<line x1="1104" y1="706.25" x2="1104" y2="612.5" style="stroke:rgb(0,0,200);stroke-width:2"/>
	<line x1="50" y1="425" x2="1074" y2="659.375" style="stroke:rgb(0,200,200);stroke-width:2"/>
	<line x1="50" y1="425" x2="1074" y2="565.625" style="stroke:rgb(0,200,200);stroke-width:2"/>
	<line x1="1114" y1="659.375" x2="1114" y2="565.625" style="stroke:rgb(0,0,200);stroke-width:2"/>
	<line x1="50" y1="425" x2="1074" y2="612.5" style="stroke:rgb(0,200,200);stroke-width:2"/>
	<line x1="50" y1="425" x2="1074" y2="518.75" style="stroke:rgb(0,200,200);stroke-width:2"/>
	<line x1="1124" y1="612.5" x2="1124" y2="518.75" style="stroke:rgb(0,0,200);stroke-width:2"/>
	<line x1="50" y1="425" x2="1074" y2="565.625" style="stroke:rgb(0,200,200);stroke-width:2"/>
	<line x1="50" y1="425" x2="1074" y2="471.875" style="stroke:rgb(0,200,200);stroke-width:2"/>
	<line x1="1134" y1="565.625" x2="1134" y2="471.875" style="stroke:rgb(0,0,200);stroke-width:2"/>
	<line x1="50" y1="425" x2="1074" y2="518.75" style="stroke:rgb(0,200,200);stroke-width:2"/>
	<line x1="50" y1="425" x2="1074" y2="425" style="stroke:rgb(0,200,200);stroke-width:2"/>
	<line x1="1144" y1="518.75" x2="1144" y2="425" style="stroke:rgb(0,0,200);stroke-width:2"/>
	<line x1="50" y1="425" x2="1074" y2="471.875" style="stroke:rgb(0,200,200);stroke-width:2"/>
	<line x1="50" y1="425" x2="1074" y2="378.125" style="stroke:rgb(0,200,200);stroke-width:2"/>
	<line x1="1154" y1="471.875" x2="1154" y2="378.125" style="stroke:rgb(0,0,200);stroke-width:2"/>
	<line x1="50" y1="425" x2="1074" y2="425" style="stroke:rgb(0,200,200);stroke-width:2"/>
	<line x1="50" y1="425" x2="1074" y2="331.25" style="stroke:rgb(0,200,200);stroke-width:2"/>
	<line x1="1164" y1="425" x2="1164" y2="331.25" style="stroke:rgb(0,0,200);stroke-width:2"/>
	<line x1="50" y1="425" x2="1074" y2="378.125" style="stroke:rgb(0,200,200);stroke-width:2"/>
	<line x1="50" y1="425" x2="1074" y2="284.375" style="stroke:rgb(0,200,200);stroke-width:2"/>
	<line x1="1174" y1="378.125" x2="1174" y2="284.375" style="stroke:rgb(0,0,200);stroke-width:2"/>
	<line x1="50" y1="425" x2="1074" y2="331.25" style="stroke:rgb(0,200,200);stroke-width:2"/>
	<line x1="50" y1="425" x2="1074" y2="237.5" style="stroke:rgb(0,200,200);stroke-width:2"/>
	<line x1="1184" y1="331.25" x2="1184" y2="237.5" style="stroke:rgb(0,0,200);stroke-width:2"/>
	<line x1="50" y1="425" x2="1074" y2="284.375" style="stroke:rgb(0,200,200);stroke-width:2"/>
	<line x1="50" y1="425" x2="1074" y2="190.625" style="stroke:rgb(0,200,200);stroke-width:2"/>
	<line x1="1194" y1="284.375" x2="1194" y2="190.625" style="stroke:rgb(0,0,200);stroke-width:2"/>
	<line x1="50" y1="425" x2="1074" y2="237.5" style="stroke:rgb(0,200,200);stroke-width:2"/>
	<line x1="50" y1="425" x2="1074" y2="143.75" style="stroke:rgb(0,200,200);stroke-width:2"/>
	<line x1="1204" y1="237.5" x2="1204" y2="143.75" style="stroke:rgb(0,0,200);stroke-width:2"/>
	<line x1="50" y1="425" x2="1074" y2="190.625" style="stroke:rgb(0,200,200);stroke-width:2"/>
	<line x1="50" y1="425" x2="1074" y2="96.875" style="stroke:rgb(0,200,200);stroke-width:2"/>
	<line x1="1214" y1="190.625" x2="1214" y2="96.875" style="stroke:rgb(0,0,200);stroke-width:2"/>
	<line x1="50" y1="425" x2="1074" y2="143.75" style="stroke:rgb(0,200,200);stroke-width:2"/>
	<line x1="50" y1="425" x2="1074" y2="50" style="stroke:rgb(0,200,200);stroke-width:2"/>
	<line x1="1224" y1="143.75" x2="1224" y2="50" style="stroke:rgb(0,0,200);stroke-width:2"/>
	<line x1="562" y1="50" x2="562" y2="800" style="stroke:rgb(100,100,100);stroke-width:2"/>
	<line x1="626" y1="50" x2="626" y2="800" style="stroke:rgb(100,100,100);stroke-width:2"/>
	<line x1="690" y1="50" x2="690" y2="800" style="stroke:rgb(100,100,100);stroke-width:2"/>
	<line x1="754" y1="50" x2="754" y2="800" style="stroke:rgb(100,100,100);stroke-width:2"/>
	<line x1="818" y1="50" x2="818" y2="800" style="stroke:rgb(100,100,100);stroke-width:2"/>
	<line x1="882" y1="50" x2="882" y2="800" style="stroke:rgb(100,100,100);stroke-width:2"/>
	<line x1="946" y1="50" x2="946" y2="800" style="stroke:rgb(100,100,100);stroke-width:2"/>
	<line x1="1010" y1="50" x2="1010" y2="800" style="stroke:rgb(100,100,100);stroke-width:2"/>
	<line x1="1074" y1="50" x2="1074" y2="800" style="stroke:rgb(100,100,100);stroke-width:2"/>
	<line x1="562" y1="50" x2="1074" y2="50" style="stroke:rgb(100,100,100);stroke-width:1"/>
	<line x1="562" y1="74" x2="1074" y2="74" style="stroke:rgb(100,100,100);stroke-width:1"/>
	<line x1="562" y1="97" x2="1074" y2="97" style="stroke:rgb(100,100,100);stroke-width:1"/>
	<line x1="562" y1="121" x2="1074" y2="121" style="stroke:rgb(100,100,100);stroke-width:1"/>
	<line x1="562" y1="144" x2="1074" y2="144" style="stroke:rgb(100,100,100);stroke-width:1"/>
	<line x1="562" y1="168" x2="1074" y2="168" style="stroke:rgb(100,100,100);stroke-width:1"/>
	<line x1="562" y1="191" x2="1074" y2="191" style="stroke:rgb(100,100,100);stroke-width:1"/>
	<line x1="562" y1="215" x2="1074" y2="215" style="stroke:rgb(100,100,100);stroke-width:1"/>
	<line x1="562" y1="238" x2="1074" y2="238" style="stroke:rgb(100,100,100);stroke-width:1"/>
	<line x1="562" y1="261" x2="1074" y2="261" style="stroke:rgb(100,100,100);stroke-width:1"/>
	<line x1="562" y1="285" x2="1074" y2="285" style="stroke:rgb(100,100,100);stroke-width:1"/>
	<line x1="562" y1="308" x2="1074" y2="308" style="stroke:rgb(100,100,100);stroke-width:1"/>
	<line x1="562" y1="332" x2="1074" y2="332" style="stroke:rgb(100,100,100);stroke-width:1"/>
	<line x1="562" y1="355" x2="1074" y2="355" style="stroke:rgb(100,100,100);stroke-width:1"/>
	<line x1="562" y1="379" x2="1074" y2="379" style="stroke:rgb(100,100,100);stroke-width:1"/>
	<line x1="562" y1="402" x2="1074" y2="402" style="stroke:rgb(100,100,100);stroke-width:1"/>
	<line x1="562" y1="425" x2="1074" y2="425" style="stroke:rgb(100,100,100);stroke-width:1"/>
	<line x1="562" y1="448" x2="1074" y2="448" style="stroke:rgb(100,100,100);stroke-width:1"/>
	<line x1="562" y1="471" x2="1074" y2="471" style="stroke:rgb(100,100,100);stroke-width:1"/>
	<line x1="562" y1="495" x2="1074" y2="495" style="stroke:rgb(100,100,100);stroke-width:1"/>
	<line x1="562" y1="518" x2="1074" y2="518" style="stroke:rgb(100,100,100);stroke-width:1"/>
	<line x1="562" y1="542" x2="1074" y2="542" style="stroke:rgb(100,100,100);stroke-width:1"/>
	<line x1="562" y1="565" x2="1074" y2="565" style="stroke:rgb(100,100,100);stroke-width:1"/>
	<line x1="562" y1="589" x2="1074" y2="589" style="stroke:rgb(100,100,100);stroke-width:1"/>
	<line x1="562" y1="612" x2="1074" y2="612" style="stroke:rgb(100,100,100);stroke-width:1"/>
	<line x1="562" y1="635" x2="1074" y2="635" style="stroke:rgb(100,100,100);stroke-width:1"/>
	<line x1="562" y1="659" x2="1074" y2="659" style="stroke:rgb(100,100,100);stroke-width:1"/>
	<line x1="562" y1="682" x2="1074" y2="682" style="stroke:rgb(100,100,100);stroke-width:1"/>
	<line x1="562" y1="706" x2="1074" y2="706" style="stroke:rgb(100,100,100);stroke-width:1"/>
	<line x1="562" y1="729" x2="1074" y2="729" style="stroke:rgb(100,100,100);stroke-width:1"/>
	<line x1="562" y1="753" x2="1074" y2="753" style="stroke:rgb(100,100,100);stroke-width:1"/>
	<line x1="562" y1="776" x2="1074" y2="776" style="stroke:rgb(100,100,100);stroke-width:1"/>
	<line x1="562" y1="800" x2="1074" y2="800" style="stroke:rgb(100,100,100);stroke-width:1"/>
	<line x1="50" y1="50" x2="50" y2="800" style="stroke:rgb(0,0,0);stroke-width:2"/>
	<line x1="50" y1="425" x2="1074" y2="425" style="stroke:rgb(0,0,0);stroke-width:2"/>
	<line x1="1074" y1="800" x2="1074" y2="50" style="stroke:rgb(255,0,0);stroke-width:2"/>
	<line x1="562" y1="612" x2="562" y2="238" style="stroke:rgb(0,100,0);stroke-width:5"/>
	<line x1="687" y1="659" x2="687" y2="191" style="stroke:rgb(0,100,0);stroke-width:5"/>
	<line x1="693" y1="659" x2="693" y2="191" style="stroke:rgb(0,200,0);stroke-width:5"/>
	<line x1="818" y1="706" x2="818" y2="144" style="stroke:rgb(0,200,0);stroke-width:5"/>
	<line x1="850" y1="717" x2="850" y2="133" style="stroke:rgb(0,100,0);stroke-width:5"/>
	<line x1="1007" y1="776" x2="1007" y2="74" style="stroke:rgb(0,100,0);stroke-width:5"/>
	<line x1="1013" y1="776" x2="1013" y2="74" style="stroke:rgb(0,200,0);stroke-width:5"/>
	<rect x="690" y="612" width="64" height="23" style="fill:rgb(255,0,0);fill-opacity:0.3;" />
	<rect x="690" y="214" width="64" height="23" style="fill:rgb(255,0,0);fill-opacity:0.3;" />
	<rect x="626" y="237" width="64" height="23" style="fill:rgb(255,0,0);fill-opacity:0.3;" />
	<rect x="626" y="589" width="64" height="23" style="fill:rgb(255,0,0);fill-opacity:0.3;" />
	<rect x="626" y="566" width="64" height="23" style="fill:rgb(255,0,0);fill-opacity:0.3;" />
	<rect x="626" y="261" width="64" height="23" style="fill:rgb(255,0,0);fill-opacity:0.3;" />
</svg>
